<?xml version="1.0" encoding="utf-8"?>
<!-- Generator: Adobe Illustrator 18.0.0, SVG Export Plug-In . SVG Version: 6.00 Build 0)  -->
<!DOCTYPE svg PUBLIC "-//W3C//DTD SVG 1.1//EN" "http://www.w3.org/Graphics/SVG/1.1/DTD/svg11.dtd">
<svg version="1.1" id="Layer_1" xmlns="http://www.w3.org/2000/svg" xmlns:xlink="http://www.w3.org/1999/xlink" x="0px" y="0px"
	 width="256px" height="256px" viewBox="0 0 256 256" enable-background="new 0 0 256 256" xml:space="preserve">
<g>
	<g>
		<g>
			<g>
				<path fill="#E0E0E0" d="M166.7,85.1v16.7c-6.6,6.2-14.6,10.8-23.6,13.4l6.8-50.9l0.1,0C159.8,66.5,166.7,75.3,166.7,85.1z"/>
			</g>
		</g>
		<g>
			<g>
				<path fill="#E0E0E0" d="M113.9,115.9c-10.1-2.4-19.2-7.4-26.5-14.3V85.1c0-9.4,8.5-18.6,19.4-20.9l0.1,0L113.9,115.9z"/>
			</g>
		</g>
		<g>
			<g>
				<path fill="#4A555F" d="M128.4,60c-13.5,0-24.5-11-24.5-24.5s11-24.5,24.5-24.5c13.5,0,24.5,11,24.5,24.5
					C152.9,49,141.9,60,128.4,60z M128.4,14.1c-11.8,0-21.4,9.6-21.4,21.4s9.6,21.4,21.4,21.4c11.8,0,21.4-9.6,21.4-21.4
					C149.8,23.7,140.2,14.1,128.4,14.1z"/>
			</g>
			<g>
				<path fill="#FFD552" d="M128.4,52.9c-9.6,0-17.5-7.8-17.5-17.5c0-9.6,7.8-17.5,17.5-17.5c9.6,0,17.5,7.8,17.5,17.5
					C145.9,45.1,138,52.9,128.4,52.9z"/>
			</g>
			<g>
				<path fill="#4A555F" d="M173.8,95.9h-3.1v-10c0-14.1-11.5-25.7-25.6-25.9l-0.1,0c-0.1,0-0.1,0-0.2,0h-35.3
					c-14.3,0-25.9,11.6-25.9,25.9v10h-3.1v-10c0-16,13-29,29-29h35.3c0.1,0,0.3,0,0.4,0c15.8,0.2,28.6,13.2,28.6,29V95.9z"/>
			</g>
			<g>
				<path fill="#4A555F" d="M117.6,117.1l-4.4-34.2l-0.1,0l0-0.1l-3.3-25.9h8l8.1,9.8l-9.6,16.8l4.3,33.2L117.6,117.1z M113.3,60
					l2.4,18.4l6.5-11.4l-5.8-7H113.3z"/>
			</g>
			<g>
				<path fill="#4A555F" d="M139.2,116.7l-3.1-0.4l4.2-32.9l-8.8-17.1l8.1-9.4h7l0,1.8l-3.1,24.2l0.1,0.1l-0.1,0L139.2,116.7z
					 M135.3,66.7l5.8,11.2l2.3-18h-2.3L135.3,66.7z"/>
			</g>
			<g>
				<rect x="126.9" y="72.1" fill="#4A555F" width="3.1" height="45.3"/>
			</g>
			<g>
				<polygon fill="#4A555F" points="128.4,74.4 122.9,67.8 125.3,65.8 128.5,69.7 132.3,65.5 134.6,67.5 				"/>
			</g>
			<g>
				<circle fill="#4A555F" cx="134.9" cy="86" r="2.4"/>
			</g>
			<g>
				<circle fill="#4A555F" cx="134.9" cy="103.3" r="2.4"/>
			</g>
		</g>
	</g>
	<g>
		<path fill="#4A555F" d="M127.2,119c-32.8,0-59.5-26.7-59.5-59.5S94.4,0,127.2,0s59.5,26.7,59.5,59.5S160,119,127.2,119z
			 M127.2,3.1c-31.1,0-56.4,25.3-56.4,56.4s25.3,56.4,56.4,56.4s56.4-25.3,56.4-56.4S158.3,3.1,127.2,3.1z"/>
	</g>
	<g>
		<g>
			<g>
				<path fill="#E0E0E0" d="M56.6,202.3v11.3c-2.7,2.2-5.8,3.9-9.2,5.1l3.4-25.5C54.3,194.8,56.6,198.3,56.6,202.3z"/>
			</g>
		</g>
		<g>
			<g>
				<path fill="#E0E0E0" d="M26.5,219.2c-4-1.2-7.7-3.2-10.9-5.7v-11.2c0-3.8,3.1-7.6,7.3-9.2L26.5,219.2z"/>
			</g>
		</g>
		<g>
			<g>
				<path fill="#4A555F" d="M36.9,188.6c-8,0-14.6-6.5-14.6-14.6s6.5-14.6,14.6-14.6S51.4,166,51.4,174S44.9,188.6,36.9,188.6z
					 M36.9,162.5c-6.3,0-11.5,5.2-11.5,11.5c0,6.3,5.2,11.5,11.5,11.5s11.5-5.2,11.5-11.5C48.4,167.7,43.2,162.5,36.9,162.5z"/>
			</g>
			<g>
				<path fill="#FFD552" d="M36.9,181.9c-4.4,0-7.9-3.5-7.9-7.9c0-4.4,3.5-7.9,7.9-7.9c4.4,0,7.9,3.5,7.9,7.9
					C44.7,178.4,41.2,181.9,36.9,181.9z"/>
			</g>
			<g>
				<path fill="#4A555F" d="M63.4,208.4h-3.1v-5.7c0-7.7-6.2-14-13.9-14.1H26.2c-7.8,0-14.1,6.3-14.1,14.1v5.7H9v-5.7
					c0-9.5,7.7-17.2,17.2-17.2h20.2c9.4,0.1,17,7.8,17,17.2V208.4z"/>
			</g>
			<g>
				<path fill="#4A555F" d="M30,220.5l-4.5-35h5.6l5.1,6.2l-5.6,9.8l2.4,18.7L30,220.5z M29,188.6l1,7.7l2.5-4.3l-2.8-3.4H29z"/>
			</g>
			<g>
				<path fill="#4A555F" d="M43.7,220.3l-3.1-0.4l2.4-18.5l-5.1-9.9l5.1-5.9h5.2L43.7,220.3z M41.6,191.9l2.1,4.1l0.9-7.3h-0.2
					L41.6,191.9z"/>
			</g>
			<g>
				<rect x="35.4" y="194.8" fill="#4A555F" width="3.1" height="25.8"/>
			</g>
			<g>
				<polygon fill="#4A555F" points="36.9,197.2 33.2,192.8 35.6,190.8 36.9,192.5 38.6,190.6 40.9,192.7 				"/>
			</g>
		</g>
	</g>
	<g>
		<path fill="#4A555F" d="M36.2,222.2c-19,0-34.5-15.5-34.5-34.5s15.5-34.5,34.5-34.5s34.5,15.5,34.5,34.5S55.2,222.2,36.2,222.2z
			 M36.2,156.3c-17.3,0-31.4,14.1-31.4,31.4s14.1,31.4,31.4,31.4s31.4-14.1,31.4-31.4S53.5,156.3,36.2,156.3z"/>
	</g>
	<g>
		<g>
			<g>
				<path fill="#E0E0E0" d="M240.2,202.3v11.3c-2.7,2.2-5.8,3.9-9.2,5.1l3.4-25.5C237.9,194.8,240.2,198.3,240.2,202.3z"/>
			</g>
		</g>
		<g>
			<g>
				<path fill="#E0E0E0" d="M210.1,219.2c-4-1.2-7.7-3.2-10.9-5.7v-11.2c0-3.8,3.1-7.6,7.3-9.2L210.1,219.2z"/>
			</g>
		</g>
		<g>
			<g>
				<path fill="#4A555F" d="M220.5,188.6c-8,0-14.6-6.5-14.6-14.6s6.5-14.6,14.6-14.6c8,0,14.6,6.5,14.6,14.6
					S228.5,188.6,220.5,188.6z M220.5,162.5c-6.3,0-11.5,5.2-11.5,11.5c0,6.3,5.2,11.5,11.5,11.5c6.3,0,11.5-5.2,11.5-11.5
					C232,167.7,226.8,162.5,220.5,162.5z"/>
			</g>
			<g>
				<path fill="#FFD552" d="M220.5,181.9c-4.4,0-7.9-3.5-7.9-7.9c0-4.4,3.5-7.9,7.9-7.9c4.4,0,7.9,3.5,7.9,7.9
					C228.4,178.4,224.8,181.9,220.5,181.9z"/>
			</g>
			<g>
				<path fill="#4A555F" d="M247,208.4h-3.1v-5.7c0-7.7-6.2-14-13.9-14.1h-20.2c-7.8,0-14.1,6.3-14.1,14.1v5.7h-3.1v-5.7
					c0-9.5,7.7-17.2,17.2-17.2H230c9.4,0.1,17,7.8,17,17.2V208.4z"/>
			</g>
			<g>
				<path fill="#4A555F" d="M213.7,220.5l-4.5-35h5.6l5.1,6.2l-5.6,9.7l2.4,18.7L213.7,220.5z M212.7,188.6l1,7.7l2.5-4.3l-2.8-3.4
					H212.7z"/>
			</g>
			<g>
				<path fill="#4A555F" d="M227.3,220.3l-3.1-0.4l2.4-18.5l-5.1-9.9l5.1-5.9h5.2L227.3,220.3z M225.2,191.9l2.1,4.1l0.9-7.3H228
					L225.2,191.9z"/>
			</g>
			<g>
				<rect x="219" y="194.8" fill="#4A555F" width="3.1" height="25.8"/>
			</g>
			<g>
				<polygon fill="#4A555F" points="220.5,197.2 216.9,192.8 219.2,190.8 220.6,192.5 222.2,190.6 224.5,192.7 				"/>
			</g>
		</g>
	</g>
	<g>
		<path fill="#4A555F" d="M219.8,222.2c-19,0-34.5-15.5-34.5-34.5s15.5-34.5,34.5-34.5s34.5,15.5,34.5,34.5S238.8,222.2,219.8,222.2
			z M219.8,156.3c-17.3,0-31.4,14.1-31.4,31.4s14.1,31.4,31.4,31.4s31.4-14.1,31.4-31.4S237.1,156.3,219.8,156.3z"/>
	</g>
	<g>
		<g>
			<g>
				<path fill="#E0E0E0" d="M148.9,236.1v11.3c-2.7,2.2-5.8,3.9-9.2,5.1l3.4-25.5C146.6,228.7,148.9,232.2,148.9,236.1z"/>
			</g>
		</g>
		<g>
			<g>
				<path fill="#E0E0E0" d="M118.8,253c-4-1.2-7.7-3.2-10.9-5.7v-11.2c0-3.8,3.1-7.6,7.3-9.2L118.8,253z"/>
			</g>
		</g>
		<g>
			<g>
				<path fill="#4A555F" d="M129.1,222.4c-8,0-14.6-6.5-14.6-14.6s6.5-14.6,14.6-14.6s14.6,6.5,14.6,14.6S137.2,222.4,129.1,222.4z
					 M129.1,196.3c-6.3,0-11.5,5.2-11.5,11.5c0,6.3,5.2,11.5,11.5,11.5c6.3,0,11.5-5.2,11.5-11.5
					C140.7,201.5,135.5,196.3,129.1,196.3z"/>
			</g>
			<g>
				<path fill="#FFD552" d="M129.1,215.7c-4.4,0-7.9-3.5-7.9-7.9c0-4.4,3.5-7.9,7.9-7.9c4.4,0,7.9,3.5,7.9,7.9
					C137,212.2,133.5,215.7,129.1,215.7z"/>
			</g>
			<g>
				<path fill="#4A555F" d="M155.7,242.2h-3.1v-5.7c0-7.7-6.2-14-13.9-14.1h-20.2c-7.8,0-14.1,6.3-14.1,14.1v5.7h-3.1v-5.7
					c0-9.5,7.7-17.2,17.2-17.2h20.2c9.4,0.1,17,7.8,17,17.2V242.2z"/>
			</g>
			<g>
				<path fill="#4A555F" d="M123.9,255.7h-1.4l-0.2-1.3l-4.5-35h5.6l5.1,6.2l-5.6,9.7l2.4,18.7l-1.5,0.2L123.9,255.7z M121.3,222.4
					l1,7.7l2.5-4.3l-2.8-3.4H121.3z"/>
			</g>
			<g>
				<path fill="#4A555F" d="M136,254.1l-3.1-0.4l2.4-18.5l-5.1-9.9l5.1-5.9h5.2L136,254.1z M133.9,225.7l2.1,4.1l0.9-7.4h-0.2
					L133.9,225.7z"/>
			</g>
			<g>
				<rect x="127.7" y="228.7" fill="#4A555F" width="3.1" height="25.8"/>
			</g>
			<g>
				<polygon fill="#4A555F" points="129.2,231 125.5,226.7 127.9,224.7 129.2,226.3 130.9,224.5 133.2,226.5 				"/>
			</g>
		</g>
	</g>
	<g>
		<path fill="#4A555F" d="M128.5,256c-19,0-34.5-15.5-34.5-34.5s15.5-34.5,34.5-34.5s34.5,15.5,34.5,34.5S147.5,256,128.5,256z
			 M128.5,190.1c-17.3,0-31.4,14.1-31.4,31.4s14.1,31.4,31.4,31.4s31.4-14.1,31.4-31.4S145.8,190.1,128.5,190.1z"/>
	</g>
	<g>
		<path fill="#4A555F" d="M55.6,155.7l-2.1-2.3l2.3-2.1l2.1,2.3L55.6,155.7z M60.2,151.5l-2.1-2.3l2.3-2.1l2.1,2.3L60.2,151.5z
			 M64.7,147.4l-2.1-2.3L65,143l2.1,2.3L64.7,147.4z M69.3,143.3l-2.1-2.3l2.3-2.1l2.1,2.3L69.3,143.3z M73.9,139.1l-2.1-2.3
			l2.3-2.1l2.1,2.3L73.9,139.1z M78.5,135l-2.1-2.3l2.3-2.1l2.1,2.3L78.5,135z M83.1,130.8l-2.1-2.3l2.3-2.1l2.1,2.3L83.1,130.8z
			 M87.7,126.7l-2.1-2.3l2.3-2.1l2.1,2.3L87.7,126.7z M92.3,122.6l-2.1-2.3l2.3-2.1l2.1,2.3L92.3,122.6z M96.9,118.4l-2.1-2.3
			l2.3-2.1l2.1,2.3L96.9,118.4z"/>
	</g>
	<g>
		<path fill="#4A555F" d="M200.6,154l-2.4-2l2-2.4l2.4,2L200.6,154z M195.9,150.1l-2.4-2l2-2.4l2.4,2L195.9,150.1z M191.1,146.1
			l-2.4-2l2-2.4l2.4,2L191.1,146.1z M186.4,142.2l-2.4-2l2-2.4l2.4,2L186.4,142.2z M181.6,138.2l-2.4-2l2-2.4l2.4,2L181.6,138.2z
			 M176.9,134.2l-2.4-2l2-2.4l2.4,2L176.9,134.2z M172.2,130.3l-2.4-2l2-2.4l2.4,2L172.2,130.3z M167.4,126.3l-2.4-2l2-2.4l2.4,2
			L167.4,126.3z M162.7,122.3l-2.4-2l2-2.4l2.4,2L162.7,122.3z M157.9,118.4l-2.4-2l2-2.4l2.4,2L157.9,118.4z"/>
	</g>
	<g>
		<path fill="#4A555F" d="M129.9,180.9l-3.1,0l0-3.1l3.1,0L129.9,180.9z M129.9,174.8l-3.1,0l0-3.1l3.1,0L129.9,174.8z M129.9,168.6
			l-3.1,0l0-3.1l3.1,0L129.9,168.6z M129.9,162.4l-3.1,0l0-3.1l3.1,0L129.9,162.4z M129.9,156.2l-3.1,0l0-3.1l3.1,0L129.9,156.2z
			 M130,150l-3.1,0l0-3.1l3.1,0L130,150z M130,143.9l-3.1,0l0-3.1l3.1,0L130,143.9z M130,137.7l-3.1,0l0-3.1l3.1,0L130,137.7z
			 M130,131.5l-3.1,0l0-3.1l3.1,0L130,131.5z M130,125.3l-3.1,0l0-3.1l3.1,0L130,125.3z"/>
	</g>
</g>
</svg>
