<?xml version="1.0" encoding="utf-8"?>
<!-- Generator: Adobe Illustrator 16.0.0, SVG Export Plug-In . SVG Version: 6.00 Build 0)  -->
<!DOCTYPE svg PUBLIC "-//W3C//DTD SVG 1.1//EN" "http://www.w3.org/Graphics/SVG/1.1/DTD/svg11.dtd">
<svg version="1.1" xmlns="http://www.w3.org/2000/svg" xmlns:xlink="http://www.w3.org/1999/xlink" x="0px" y="0px" width="64px"
	 height="64px" viewBox="0 0 64 64" enable-background="new 0 0 64 64" xml:space="preserve">
<g id="_x32_5_planet_x2C__earth_x2C__global_x2C__mass_x2C__bulb_x2C__idea_x2C__creative">
</g>
<g id="_x32_4_founder_x2C__business_x2C__startup_x2C__team_x2C__bulb_x2C__idea_x2C__brainstorm">
</g>
<g id="_x32_3_like_x2C__success_x2C__smm_x2C__network_x2C__social_x2C__bulb_x2C__idea">
</g>
<g id="_x32_2_diamond_x2C__good_x2C__great_x2C__smart_x2C__bulb_x2C__idea_x2C__creative">
</g>
<g id="_x32_1_presentation_x2C__business_x2C__training_x2C__description_x2C__bulb_x2C__idea_x2C__plan">
	<g>
		<g>
			<path fill="#E6E9ED" d="M60.502,45.496c0,0.55-0.45,1-1,1H4.498c-0.55,0-1-0.45-1-1V8.49c0-0.55,0.45-1,1-1h55.004
				c0.55,0,1,0.45,1,1V45.496z"/>
		</g>
		<path fill="#656D78" d="M62.502,8.492c0,0.55-0.45,1-1,1H2.498c-0.55,0-1-0.45-1-1v-2c0-0.55,0.45-1,1-1h59.004c0.55,0,1,0.45,1,1
			V8.492z"/>
		<rect x="31" y="46.496" fill="#CCD1D9" width="2" height="13"/>
		<rect x="31" y="4.504" fill="#CCD1D9" width="2" height="0.988"/>
		<polygon fill="#E6E9ED" points="32,52.746 18.5,59.496 14.5,59.496 32,50.746 		"/>
		<polygon fill="#E6E9ED" points="32,52.746 45.5,59.496 49.5,59.496 32,50.746 		"/>
		<g>
			<path fill="#434A54" d="M55.496,8.012H8.5c-0.276,0-0.5-0.224-0.5-0.5s0.224-0.5,0.5-0.5h46.996c0.276,0,0.5,0.224,0.5,0.5
				S55.772,8.012,55.496,8.012z"/>
		</g>
		<g>
			<g>
				<path fill="#CCD1D9" d="M52.499,21.014H33.498c-0.276,0-0.5-0.224-0.5-0.5s0.224-0.5,0.5-0.5h19.001c0.276,0,0.5,0.224,0.5,0.5
					S52.775,21.014,52.499,21.014z"/>
			</g>
			<g>
				<path fill="#CCD1D9" d="M52.499,24.014H33.498c-0.276,0-0.5-0.224-0.5-0.5s0.224-0.5,0.5-0.5h19.001c0.276,0,0.5,0.224,0.5,0.5
					S52.775,24.014,52.499,24.014z"/>
			</g>
			<g>
				<path fill="#CCD1D9" d="M52.499,27.014H33.498c-0.276,0-0.5-0.224-0.5-0.5s0.224-0.5,0.5-0.5h19.001c0.276,0,0.5,0.224,0.5,0.5
					S52.775,27.014,52.499,27.014z"/>
			</g>
			<g>
				<path fill="#CCD1D9" d="M52.499,30.015H33.498c-0.276,0-0.5-0.224-0.5-0.5s0.224-0.5,0.5-0.5h19.001c0.276,0,0.5,0.224,0.5,0.5
					S52.775,30.015,52.499,30.015z"/>
			</g>
			<g>
				<path fill="#CCD1D9" d="M52.499,33.014H33.498c-0.276,0-0.5-0.224-0.5-0.5s0.224-0.5,0.5-0.5h19.001c0.276,0,0.5,0.224,0.5,0.5
					S52.775,33.014,52.499,33.014z"/>
			</g>
			<g>
				<path fill="#CCD1D9" d="M43.498,36.014h-10c-0.276,0-0.5-0.224-0.5-0.5s0.224-0.5,0.5-0.5h10c0.276,0,0.5,0.224,0.5,0.5
					S43.774,36.014,43.498,36.014z"/>
			</g>
		</g>
		<g>
			<circle fill="#FFCE54" cx="18.996" cy="24.757" r="8.5"/>
			<rect x="15.496" y="28.256" fill="#FFCE54" width="7" height="5"/>
			<polygon fill="#AAB2BD" points="22.496,36.254 21.495,37.255 16.497,37.255 15.496,36.254 15.496,33.256 22.496,33.256 			"/>
			<g>
				<path fill="#CCD1D9" d="M22.496,35.258h-7c-0.276,0-0.5-0.224-0.5-0.5s0.224-0.5,0.5-0.5h7c0.276,0,0.5,0.224,0.5,0.5
					S22.772,35.258,22.496,35.258z"/>
			</g>
		</g>
		<g>
			<path fill="#F6BB42" d="M17.665,31.755c-0.276,0-0.5-0.224-0.5-0.5v-5.001c0-0.276,0.224-0.5,0.5-0.5s0.5,0.224,0.5,0.5v5.001
				C18.165,31.531,17.941,31.755,17.665,31.755z"/>
		</g>
		<g>
			<path fill="#F6BB42" d="M20.668,31.755c-0.276,0-0.5-0.224-0.5-0.5v-5.001c0-0.276,0.224-0.5,0.5-0.5s0.5,0.224,0.5,0.5v5.001
				C21.168,31.531,20.944,31.755,20.668,31.755z"/>
		</g>
		<g>
			<path fill="#F6BB42" d="M17.665,31.755c-0.128,0-0.256-0.049-0.354-0.146c-0.195-0.195-0.195-0.512,0-0.707l1.442-1.442
				c0.195-0.195,0.512-0.195,0.707,0s0.195,0.512,0,0.707l-1.442,1.442C17.921,31.706,17.793,31.755,17.665,31.755z"/>
		</g>
		<g>
			<path fill="#F6BB42" d="M20.609,31.813c-0.128,0-0.256-0.049-0.354-0.146l-1.502-1.501c-0.195-0.195-0.195-0.512,0-0.707
				s0.512-0.195,0.707,0l1.502,1.501c0.195,0.195,0.195,0.512,0,0.707C20.865,31.765,20.737,31.813,20.609,31.813z"/>
		</g>
	</g>
</g>
<g id="_x32_0_fire_x2C__hot_x2C__bonfire_x2C__bulb_x2C__idea_x2C__light_x2C__creative">
</g>
<g id="_x31_9_presentation_x2C__business_x2C__tablet_x2C__description_x2C__bulb_x2C__idea_x2C__plan">
</g>
<g id="_x31_8_laboratory_x2C__lab_x2C__flask_x2C__experiment_x2C__bulb_x2C__idea_x2C__creative">
</g>
<g id="_x31_7_sprout_x2C__leaf_x2C__startup_x2C__water_x2C__bulb_x2C__idea_x2C__watering">
</g>
<g id="_x31_6_machine_x2C__generator_x2C__paper_x2C__bulb_x2C__idea_x2C__creative_x2C__computer">
</g>
<g id="_x31_5_portfolio_x2C__case_x2C__presentation_x2C__work_x2C__bulb_x2C__idea_x2C__creative">
</g>
<g id="_x31_4_optimization_x2C__cogwheel_x2C__setting_x2C__mechanism_x2C__bulb_x2C__idea_x2C__light">
</g>
<g id="_x31_3_air_x2C__cloud_x2C__brainstorm_x2C__storm_x2C__bulb_x2C__idea_x2C__light">
</g>
<g id="_x31_2_planet_x2C__space_x2C__flag_x2C__discovery_x2C__bulb_x2C__idea">
</g>
<g id="_x31_1_target_x2C__focus_x2C__arrow_x2C__bulb_x2C__idea_x2C__light_x2C__creative">
</g>
<g id="_x31_0_bulb_x2C__idea_x2C__light_x2C__coin_x2C__investment_x2C__money_x2C__creative">
</g>
<g id="_x39__brain_x2C__smart_x2C__bulb_x2C__idea_x2C__light_x2C__science_x2C__creative">
</g>
<g id="_x38__bulb_x2C__idea_x2C__people_x2C__team_x2C__brainstorm_x2C__creative">
</g>
<g id="_x37__rocket_x2C__space_x2C__business_x2C__startup_x2C__bulb_x2C__idea_x2C__planet">
</g>
<g id="_x36__balloon_x2C__business_x2C__startup_x2C__bulb_x2C__idea_x2C__light_x2C__basket">
</g>
<g id="_x35__coin_x2C__investment_x2C__money_x2C__bulb_x2C__idea_x2C__light">
</g>
<g id="_x34__sprout_x2C__hand_x2C__leaf_x2C__startup_x2C__earth_x2C__bulb_x2C__idea">
</g>
<g id="_x33__head_x2C__brain_x2C__storm_x2C__lightning_x2C__cloud_x2C__idea_x2C__creative">
</g>
<g id="_x32__man_x2C__suit_x2C__job_x2C__bulb_x2C__idea_x2C__creative_x2C__director">
</g>
<g id="_x31__skull_x2C__bulb_x2C__idea_x2C__light_x2C__death_x2C__creative">
</g>
</svg>
