<?xml version="1.0" encoding="utf-8"?>
<!-- Generator: Adobe Illustrator 22.0.0, SVG Export Plug-In . SVG Version: 6.00 Build 0)  -->
<svg version="1.1" id="Icon_Set" xmlns="http://www.w3.org/2000/svg" xmlns:xlink="http://www.w3.org/1999/xlink" x="0px" y="0px"
	 viewBox="0 0 64 64" style="enable-background:new 0 0 64 64;" xml:space="preserve">
<style type="text/css">
	.st0{fill:#40C4FF;}
	.st1{fill:#263238;}
	.st2{fill:#FFD740;}
	.st3{fill:#FF5252;}
	.st4{fill:#4DB6AC;}
	.st5{fill:#FFFFFF;}
	.st6{fill:#4FC3F7;}
	.st7{fill:#37474F;}
</style>
<g>
	<g>
		<path class="st0" d="M62.406,30.493l-3.889,3.889c-0.391,0.391-1.024,0.391-1.414,0L42.96,20.24c-0.391-0.391-0.391-1.024,0-1.414
			l3.889-3.889c0.391-0.391,1.024-0.391,1.414,0l14.142,14.142C62.796,29.469,62.796,30.102,62.406,30.493z"/>
		<path class="st1" d="M57.81,35.174c-0.384,0-0.769-0.146-1.061-0.438L42.606,20.593c-0.585-0.585-0.585-1.536,0-2.121l3.89-3.889
			c0.584-0.585,1.537-0.585,2.121,0l14.142,14.142c0.283,0.283,0.439,0.66,0.439,1.061c0,0.401-0.156,0.777-0.439,1.061
			l-3.889,3.889C58.578,35.028,58.193,35.174,57.81,35.174z M47.557,15.144c-0.128,0-0.256,0.048-0.354,0.146l-3.89,3.889
			c-0.195,0.195-0.195,0.512,0,0.707l14.143,14.142c0.195,0.195,0.512,0.195,0.707,0l3.889-3.889c0,0,0,0,0,0
			c0.095-0.094,0.146-0.219,0.146-0.353c0-0.133-0.052-0.259-0.146-0.354L47.91,15.29C47.812,15.193,47.685,15.144,47.557,15.144z"
			/>
	</g>
	<g>
		<path class="st0" d="M1.594,31.2l4.95,4.95c0.391,0.391,1.024,0.391,1.414,0l14.142-14.142c0.391-0.391,0.391-1.024,0-1.414
			l-4.95-4.95c-0.391-0.391-1.024-0.391-1.414,0L1.594,29.786C1.204,30.176,1.204,30.809,1.594,31.2z"/>
		<path class="st1" d="M7.251,36.941c-0.384,0-0.768-0.146-1.061-0.438l-4.949-4.951c-0.283-0.283-0.439-0.66-0.439-1.061
			c0-0.4,0.156-0.777,0.439-1.061L15.383,15.29c0.584-0.585,1.537-0.585,2.121,0l4.95,4.95c0.283,0.283,0.439,0.66,0.439,1.061
			c0,0.401-0.156,0.778-0.439,1.061L8.312,36.503C8.02,36.795,7.635,36.941,7.251,36.941z M16.443,15.851
			c-0.128,0-0.256,0.048-0.354,0.146L1.948,30.139c-0.095,0.095-0.146,0.22-0.146,0.354c0,0.134,0.052,0.259,0.146,0.353
			c0,0,0,0,0,0l4.949,4.95c0.195,0.194,0.512,0.195,0.707,0l14.143-14.142c0.095-0.095,0.146-0.22,0.146-0.354
			c0-0.133-0.052-0.259-0.146-0.354l-4.95-4.95C16.699,15.9,16.571,15.851,16.443,15.851z"/>
	</g>
	<g>
		<path class="st1" d="M42.96,50.438c-0.128,0-0.256-0.049-0.354-0.146l-9.899-9.9c-0.195-0.195-0.195-0.512,0-0.707
			s0.512-0.195,0.707,0l9.899,9.9c0.195,0.195,0.195,0.512,0,0.707C43.216,50.39,43.088,50.438,42.96,50.438z"/>
	</g>
	<g>
		<path class="st1" d="M38.718,53.267c-0.128,0-0.256-0.049-0.354-0.146l-9.192-9.192c-0.195-0.195-0.195-0.512,0-0.707
			s0.512-0.195,0.707,0l9.192,9.192c0.195,0.195,0.195,0.512,0,0.707C38.974,53.218,38.846,53.267,38.718,53.267z"/>
	</g>
	<g>
		<path class="st1" d="M19.625,50.108c-0.768,0-1.536-0.292-2.121-0.877l0,0c-1.169-1.169-1.169-3.073,0-4.243l2.652-2.651
			c1.133-1.133,3.109-1.134,4.242,0c0.566,0.566,0.879,1.32,0.879,2.121s-0.312,1.555-0.879,2.122l-2.651,2.651
			C21.162,49.816,20.394,50.108,19.625,50.108z M18.211,48.524c0.779,0.781,2.05,0.779,2.829,0l2.651-2.651
			c0.378-0.378,0.586-0.88,0.586-1.415s-0.208-1.036-0.586-1.414c-0.756-0.756-2.072-0.756-2.828,0l-2.652,2.651
			C17.432,46.475,17.432,47.744,18.211,48.524L18.211,48.524z"/>
	</g>
	<g>
		<path class="st1" d="M22.454,54.351c-0.769,0-1.536-0.292-2.121-0.877l0,0l0,0l0,0c-0.566-0.566-0.879-1.32-0.879-2.121
			s0.312-1.555,0.879-2.122l3.358-3.358c1.169-1.169,3.072-1.17,4.243,0c1.169,1.169,1.169,3.073,0,4.243l-3.359,3.358
			C23.99,54.059,23.223,54.351,22.454,54.351z M25.813,45.995c-0.513,0-1.025,0.195-1.415,0.585l-3.358,3.358
			c-0.378,0.378-0.586,0.88-0.586,1.415s0.208,1.036,0.586,1.414l0,0c0.779,0.779,2.049,0.779,2.828,0l3.359-3.358
			c0.779-0.78,0.779-2.049,0-2.829C26.838,46.189,26.325,45.995,25.813,45.995z"/>
	</g>
	<g>
		<path class="st1" d="M26.696,57.179c-0.768,0-1.536-0.292-2.121-0.877l0,0c-1.17-1.17-1.17-3.073,0-4.243l2.651-2.652
			c1.17-1.168,3.073-1.171,4.243,0c0.566,0.567,0.879,1.32,0.879,2.122s-0.312,1.555-0.879,2.121l-2.651,2.652
			C28.233,56.887,27.465,57.179,26.696,57.179z M25.282,55.595c0.779,0.78,2.05,0.778,2.829,0l2.651-2.652
			c0.378-0.378,0.586-0.88,0.586-1.414s-0.208-1.037-0.586-1.415c-0.78-0.78-2.051-0.778-2.829,0l-2.651,2.652
			C24.502,53.546,24.502,54.815,25.282,55.595L25.282,55.595z"/>
	</g>
	<g>
		<path class="st1" d="M30.93,59.999c-0.768,0-1.536-0.292-2.121-0.877l0,0c-1.169-1.17-1.169-3.073,0-4.243l1.945-1.945
			c1.132-1.132,3.108-1.134,4.242,0c0.566,0.567,0.879,1.32,0.879,2.122s-0.312,1.555-0.879,2.121l-1.944,1.945
			C32.467,59.706,31.698,59.999,30.93,59.999z M29.516,58.415c0.78,0.78,2.051,0.779,2.829,0l1.944-1.945
			c0.378-0.378,0.586-0.88,0.586-1.414s-0.208-1.037-0.586-1.415c-0.756-0.755-2.072-0.755-2.828,0l-1.945,1.945
			C28.736,56.366,28.736,57.634,29.516,58.415z"/>
	</g>
	<g>
		<path class="st1" d="M16.126,44.817c-0.128,0-0.256-0.049-0.354-0.146L9.02,37.917c-0.195-0.195-0.195-0.512,0-0.707
			s0.512-0.195,0.707,0l6.753,6.753c0.195,0.195,0.195,0.512,0,0.707C16.382,44.769,16.254,44.817,16.126,44.817z"/>
	</g>
	<g>
		<path class="st1" d="M35.914,24.957c-0.128,0-0.257-0.049-0.354-0.147l-0.156-0.157c-0.464-0.465-1.108-0.731-1.767-0.731H23.515
			c-0.276,0-0.5-0.224-0.5-0.5s0.224-0.5,0.5-0.5h10.122c0.921,0,1.823,0.374,2.475,1.025l0.157,0.157
			c0.194,0.196,0.194,0.512-0.002,0.707C36.17,24.908,36.042,24.957,35.914,24.957z"/>
	</g>
	<g>
		<path class="st1" d="M37.018,57.498c-0.04,0-0.08-0.001-0.121-0.002c-0.275-0.01-0.491-0.242-0.481-0.518
			c0.011-0.275,0.208-0.508,0.519-0.481c0.336,0.014,0.837-0.049,1.276-0.408c0.447-0.365,0.709-0.881,0.737-1.453
			c0.028-0.564-0.185-1.117-0.583-1.516c-0.195-0.195-0.195-0.512,0-0.707s0.512-0.195,0.707,0l0,0
			c0.001,0.001,0.003,0.003,0.004,0.004l0.603,0.603c0.775,0.775,1.993,0.88,2.774,0.241c0.447-0.366,0.709-0.883,0.738-1.454
			c0.027-0.563-0.185-1.116-0.584-1.514v0c-0.195-0.195-0.195-0.512,0-0.707s0.512-0.195,0.707,0
			c0.002,0.002,0.004,0.003,0.006,0.005l0.701,0.702c0.399,0.399,0.951,0.619,1.516,0.583c0.571-0.029,1.087-0.291,1.453-0.738
			c0.639-0.782,0.533-2-0.241-2.775L32.707,33.321c-0.195-0.195-0.195-0.512,0-0.707s0.512-0.195,0.707,0l14.041,14.041
			c1.134,1.133,1.269,2.941,0.308,4.115c-0.538,0.659-1.332,1.062-2.176,1.104c-0.491,0.026-0.963-0.07-1.396-0.267
			c0.003,0.083,0.003,0.166-0.002,0.249c-0.042,0.845-0.444,1.639-1.104,2.178c-0.875,0.716-2.1,0.824-3.139,0.363
			c0.005,0.096,0.005,0.192,0,0.289c-0.042,0.845-0.444,1.638-1.104,2.177C38.334,57.279,37.705,57.498,37.018,57.498z"/>
	</g>
	<g>
		<path class="st1" d="M25.99,36.57c-0.833,0-1.665-0.317-2.299-0.951c-0.614-0.614-0.952-1.43-0.952-2.298s0.338-1.684,0.952-2.298
			l2.48-2.48c0.661-0.661,1.54-1.025,2.475-1.025l6.328,0l6.218-6.218c0.195-0.195,0.512-0.195,0.707,0s0.195,0.512,0,0.707
			l-6.364,6.364c-0.094,0.094-0.221,0.146-0.354,0.146l0,0l-6.535,0c-0.668,0-1.296,0.26-1.768,0.732l-2.48,2.48
			c-0.425,0.425-0.659,0.99-0.659,1.591s0.234,1.166,0.659,1.591c0.878,0.878,2.307,0.876,3.183,0l3.712-3.712
			c0.195-0.195,0.512-0.195,0.707,0s0.195,0.512,0,0.707l-3.712,3.712C27.654,36.253,26.822,36.57,25.99,36.57z"/>
	</g>
	<g>
		<path class="st1" d="M47.193,44.772c-0.128,0-0.256-0.049-0.354-0.146c-0.195-0.195-0.195-0.512,0-0.707l8.485-8.485
			c0.195-0.195,0.512-0.195,0.707,0s0.195,0.512,0,0.707l-8.485,8.485C47.449,44.724,47.321,44.772,47.193,44.772z"/>
	</g>
	<g>
		<path class="st1" d="M30.5,14h-4c-0.276,0-0.5-0.224-0.5-0.5s0.224-0.5,0.5-0.5h4c0.276,0,0.5,0.224,0.5,0.5S30.776,14,30.5,14z"
			/>
	</g>
	<g>
		<path class="st1" d="M28.5,16c-0.276,0-0.5-0.224-0.5-0.5v-4c0-0.276,0.224-0.5,0.5-0.5s0.5,0.224,0.5,0.5v4
			C29,15.776,28.776,16,28.5,16z"/>
	</g>
	<g>
		<path class="st1" d="M37.5,7h-4C33.224,7,33,6.776,33,6.5S33.224,6,33.5,6h4C37.776,6,38,6.224,38,6.5S37.776,7,37.5,7z"/>
	</g>
	<g>
		<path class="st1" d="M35.5,9C35.224,9,35,8.776,35,8.5v-4C35,4.224,35.224,4,35.5,4S36,4.224,36,4.5v4C36,8.776,35.776,9,35.5,9z"
			/>
	</g>
	<g>
		<path class="st1" d="M1.5,58.5h-1C0.224,58.5,0,58.276,0,58s0.224-0.5,0.5-0.5h1C1.776,57.5,2,57.724,2,58S1.776,58.5,1.5,58.5z"
			/>
	</g>
	<g>
		<path class="st1" d="M14.5,58.5h-11C3.224,58.5,3,58.276,3,58s0.224-0.5,0.5-0.5h11c0.276,0,0.5,0.224,0.5,0.5
			S14.776,58.5,14.5,58.5z"/>
	</g>
	<g>
		<path class="st1" d="M63.5,58.5h-1c-0.276,0-0.5-0.224-0.5-0.5s0.224-0.5,0.5-0.5h1c0.276,0,0.5,0.224,0.5,0.5
			S63.776,58.5,63.5,58.5z"/>
	</g>
	<g>
		<path class="st1" d="M60.5,58.5h-11c-0.276,0-0.5-0.224-0.5-0.5s0.224-0.5,0.5-0.5h11c0.276,0,0.5,0.224,0.5,0.5
			S60.776,58.5,60.5,58.5z"/>
	</g>
</g>
</svg>
